HIERARCHY
ROOT Hips
{
    OFFSET 0.000000 0.000000 0.000000
    CHANNELS 6 Xposition Yposition Zposition Zrotation Xrotation Yrotation
        JOINT Chest
        {
            OFFSET -0.000000 26.747992 -0.000000
            CHANNELS 3 Zrotation Xrotation Yrotation
            JOINT Neck
            {
                OFFSET -0.000000 19.168715 0.000000
                CHANNELS 3 Zrotation Xrotation Yrotation
                JOINT Head
                {
                    OFFSET -0.000000 10.083335 0.000000
                    CHANNELS 3 Zrotation Xrotation Yrotation
                    End Site
                    {
                        OFFSET -0.000000 15.583343 0.000000
                    }
                }
            }
            JOINT LeftCollar
            {
                OFFSET -0.000000 19.168715 0.000000
                CHANNELS 3 Zrotation Xrotation Yrotation
                JOINT LeftShoulder
                {
                    OFFSET 19.500000 -0.000000 0.000000
                    CHANNELS 3 Zrotation Xrotation Yrotation
                    JOINT LeftElbow
                    {
                        OFFSET 19.022890 0.000000 0.000000
                        CHANNELS 3 Zrotation Xrotation Yrotation
                        JOINT LeftWrist
                        {
                            OFFSET 24.768559 0.000000 0.000000
                            CHANNELS 3 Zrotation Xrotation Yrotation
                            End Site
                            {
                                OFFSET 0.000000 -13.750003 0.000000
                            }
                        }
                    }
                }
            }
            JOINT RightCollar
            {
                OFFSET -0.000000 19.168715 0.000000
                CHANNELS 3 Zrotation Xrotation Yrotation
                JOINT RightShoulder
                {
                    OFFSET -19.500000 0.000000 0.000000
                    CHANNELS 3 Zrotation Xrotation Yrotation
                    JOINT RightElbow
                    {
                        OFFSET -19.022890 0.000000 0.000000
                        CHANNELS 3 Zrotation Xrotation Yrotation
                        JOINT RightWrist
                        {
                            OFFSET -24.768559 0.000000 0.000000
                            CHANNELS 3 Zrotation Xrotation Yrotation
                            End Site
                            {
                                OFFSET -0.000000 -13.750003 0.000000
                            }
                        }
                    }
                }
            }
        }
    JOINT LeftHip
    {
        OFFSET 11.000002 0.000000 0.000000
        CHANNELS 3 Zrotation Xrotation Yrotation
        JOINT LeftKnee
        {
            OFFSET -0.000000 -39.837296 0.000000
            CHANNELS 3 Zrotation Xrotation Yrotation
            JOINT LeftAnkle
            {
                OFFSET -0.000000 -38.248398 0.000000
                CHANNELS 3 Zrotation Xrotation Yrotation
                End Site
                {
                    OFFSET -0.000000 -4.583334 15.583343
                }
            }
        }
    }
    JOINT RightHip
    {
        OFFSET -11.000002 0.000000 0.000000
        CHANNELS 3 Zrotation Xrotation Yrotation
        JOINT RightKnee
        {
            OFFSET -0.000000 -39.837296 0.000000
            CHANNELS 3 Zrotation Xrotation Yrotation
            JOINT RightAnkle
            {
                OFFSET -0.000000 -38.248398 0.000000
                CHANNELS 3 Zrotation Xrotation Yrotation
                End Site
                {
                    OFFSET -0.000000 -4.583334 15.583343
                }
            }
        }
    }
}
MOTION
Frames:    14
Frame Time:    0.010000
-2.618655    84.198952    15.014276    -0.654036    8.267541    -22.031422    -4.188985    4.919543    16.997738    0.262268    1.126660    -28.904417    8.576707    -28.011618    -26.761425    -21.052137    -1.888973    10.307474    -23.059494    28.168886    -18.271229    19.962112    -13.454919    -66.719521    139.032761    -7.589544    28.691742    10.563419    1.763711    18.706980    39.270466    -19.107595    25.817028    -6.285367    -1.336617    41.445522    -126.541992    13.776577    -58.685760    3.658550    -35.089420    -2.011498    3.177169    34.483074    3.171060    -1.516191    -4.771145    -4.796418    -3.965162    3.683987    -19.215921    -3.348817    13.306573    -26.596457    7.737150    -9.619108    1.649454    
-2.781907    84.384521    15.269932    -0.765571    8.475431    -21.060717    -5.097537    4.666005    18.447580    -0.394722    1.672006    -29.213776    8.741123    -27.188810    -27.104424    -21.303911    -2.022081    11.155069    -23.516987    30.185938    -19.641182    20.430370    -14.154765    -68.584465    140.418686    -7.540344    27.700405    11.087934    1.906726    19.041351    38.723560    -18.002581    24.577274    -4.412245    -0.809486    40.839764    -120.974380    10.360025    -59.840630    3.751223    -34.689167    -2.124163    2.830630    33.509613    2.934027    -1.469187    -4.494605    -5.085780    -3.560426    4.081426    -19.415903    -3.399938    12.814554    -26.375036    6.700039    -8.918937    1.479821    
-2.958607    84.568527    15.565580    -0.895510    8.647905    -20.073954    -5.801732    4.481131    19.707516    -1.126227    2.136385    -29.302742    8.802495    -26.366339    -27.259361    -21.509348    -2.198528    12.212876    -23.889557    32.572495    -21.022202    20.769520    -14.722713    -70.022629    142.187836    -6.184016    27.632956    11.736027    2.069055    19.296095    38.310749    -16.776663    23.546341    -3.178616    -0.557307    40.328941    -114.896873    6.519355    -60.464314    3.771484    -34.243732    -2.312779    2.580219    32.568344    2.663789    -1.474686    -4.249772    -5.333868    -3.174573    4.501038    -19.557423    -3.463204    12.415486    -26.108868    5.734437    -8.227451    1.416540    
-3.142112    84.745956    15.897218    -1.055615    8.779338    -19.044718    -6.301061    4.400272    20.785046    -1.914883    2.495949    -29.204206    8.795347    -25.557343    -27.246445    -21.644691    -2.407316    13.424796    -24.142759    35.229328    -22.401840    21.024414    -15.153402    -70.995094    144.010452    -3.726853    28.332220    12.486061    2.234234    19.447880    37.992516    -15.463470    22.744638    -2.496461    -0.506447    39.889046    -108.239731    2.250961    -60.502415    3.701792    -33.778034    -2.569493    2.465079    31.703568    2.281674    -1.515827    -4.052592    -5.518054    -2.800524    4.947475    -19.642284    -3.537211    12.125179    -25.836910    4.851582    -7.553507    1.478808    
-3.325819    84.912102    16.257370    -1.253967    8.867506    -17.954296    -6.612407    4.450422    21.693930    -2.738590    2.735146    -28.957722    8.759736    -24.778624    -27.091818    -21.694845    -2.631808    14.720730    -24.262970    38.016655    -23.754074    21.226316    -15.445159    -71.513344    145.494843    -0.445250    29.564869    13.293064    2.400593    19.489637    37.747761    -14.126005    22.172745    -2.198013    -0.558544    39.501480    -101.027122    -2.428213    -59.938698    3.536907    -33.316986    -2.890669    2.498950    30.950680    1.744932    -1.573954    -3.913043    -5.626712    -2.431343    5.414233    -19.671366    -3.621265    11.960427    -25.586533    4.057676    -6.900271    1.664278    
-3.504067    85.062828    16.636307    -1.493893    8.912847    -16.792715    -6.766476    4.645928    22.452236    -3.573095    2.852919    -28.608055    8.738055    -24.054512    -26.826159    -21.657063    -2.858022    16.021358    -24.266970    40.770649    -25.024574    21.376804    -15.593647    -71.646294    146.332550    3.326207    31.103024    14.108535    2.554093    19.427055    37.548779    -12.803713    21.816612    -2.095380    -0.630008    39.187687    -93.421860    -7.356529    -58.804600    3.283058    -32.882347    -3.272484    2.674051    30.332451    1.043118    -1.630726    -3.834586    -5.659403    -2.062301    5.885880    -19.650970    -3.715830    11.937094    -25.357738    3.360425    -6.265950    1.943780    
-3.673047    85.194695    17.023478    -1.773865    8.917357    -15.558625    -6.802875    4.987711    23.080343    -4.396232    2.863189    -28.201982    8.771244    -23.415527    -26.483429    -21.545618    -3.069048    17.246431    -24.202965    43.313351    -26.125967    21.446827    -15.579287    -71.512703    146.374542    7.223557    32.772697    14.890194    2.678585    19.273979    37.368858    -11.500913    21.654514    -1.990826    -0.643787    38.992916    -85.731461    -12.218865    -57.141426    2.956149    -32.490715    -3.705114    2.967572    29.858727    0.187285    -1.670518    -3.814938    -5.624903    -1.691632    6.342316    -19.595394    -3.822731    12.068043    -25.118437    2.768183    -5.647017    2.265947    
-3.831120    85.305199    17.408720    -2.087362    8.884779    -14.258291    -6.764572    5.463235    23.599072    -5.192761    2.793448    -27.784485    8.897165    -22.894068    -26.097773    -21.384525    -3.258828    18.324320    -24.150478    45.488926    -26.950144    21.358528    -15.414330    -71.252007    145.677063    10.900005    34.436241    15.606423    2.776164    19.048773    37.182663    -10.194090    21.672146    -1.701224    -0.523234    38.973927    -78.366577    -16.607506    -55.012955    2.578370    -32.154263    -4.170353    3.348324    29.528900    -0.801343    -1.680667    -3.846937    -5.539875    -1.320853    6.762471    -19.519249    -3.943460    12.360497    -24.821014    2.285257    -5.041207    2.571753    
-3.978607    85.392845    17.783304    -2.422751    8.821518    -12.904223    -6.693491    6.049853    24.028425    -5.953540    2.672102    -27.392534    9.144214    -22.516155    -25.699078    -21.205126    -3.420070    19.205545    -24.195929    47.170147    -27.391460    21.135103    -15.070880    -70.973724    144.294144    14.059100    36.018215    16.247805    2.844829    18.771044    36.953407    -8.806664    21.865755    -1.105798    -0.240264    39.198986    -71.776382    -20.144049    -52.546124    2.173731    -31.881987    -4.642303    3.782427    29.333298    -1.898924    -1.650784    -3.919133    -5.426675    -0.955069    7.127235    -19.425724    -4.076666    12.812854    -24.430355    1.908099    -4.447135    2.813605    
-4.117317    85.457275    18.141012    -2.764604    8.736450    -11.513960    -6.625467    6.717949    24.388189    -6.673919    2.523910    -27.053291    9.526894    -22.296597    -25.310833    -21.037060    -3.550625    19.863808    -24.413851    48.275368    -27.376938    20.707253    -14.576912    -70.786125    142.547745    16.614481    37.420628    16.821518    2.888775    18.462090    36.646343    -7.238552    22.237638    -0.176856    0.191187    39.707413    -66.301575    -22.604624    -49.889561    1.764930    -31.679392    -5.089744    4.237207    29.254601    -3.082260    -1.574253    -4.018043    -5.309239    -0.602787    7.422249    -19.304686    -4.217058    13.413559    -23.938030    1.624518    -3.864683    2.967746    
-4.249861    85.499199    18.478785    -3.095731    8.640036    -10.108314    -6.587992    7.434285    24.697449    -7.348543    2.366246    -26.782810    10.040525    -22.237955    -24.949694    -20.903080    -3.649185    20.295544    -24.846329    48.766483    -26.883888    20.067188    -13.955398    -70.755844    140.633408    18.519058    38.556858    17.343330    2.922970    18.149231    36.235714    -5.403175    22.794014    1.006368    0.722894    40.500782    -62.083023    -23.951166    -47.175213    1.370080    -31.547419    -5.481831    4.684764    29.268957    -4.328275    -1.450885    -4.129810    -5.208874    -0.275295    7.639499    -19.142241    -4.356401    14.142423    -23.356953    1.412733    -3.295273    3.035485    
-4.379039    85.520363    18.796608    -3.399410    8.543859    -8.709200    -6.598995    8.163975    24.974333    -7.970593    2.208925    -26.587261    10.664577    -22.328585    -24.625330    -20.814445    -3.719680    20.515619    -25.495756    48.650074    -25.946714    19.234735    -13.246468    -70.914268    138.746445    19.872408    39.384464    17.836283    2.949821    17.868362    35.706509    -3.241212    23.533190    2.275731    1.278579    41.558838    -59.058838    -24.290361    -44.500481    0.999750    -31.482307    -5.794044    5.106470    29.347589    -5.612648    -1.289036    -4.241827    -5.142850    0.014854    7.776958    -18.931164    -4.485700    14.973096    -22.710501    1.243747    -2.741356    3.037344    
-4.507418    85.523697    19.096720    -3.661793    8.460830    -7.337040    -6.666589    8.872303    25.235260    -8.533808    2.055101    -26.465733    11.369929    -22.542727    -24.342545    -20.774818    -3.756614    20.552090    -26.321592    47.961063    -24.651047    18.244244    -12.482938    -71.274002    137.039139    20.860437    39.918839    18.314564    2.987196    17.662352    35.079430    -0.777886    24.441872    3.474812    1.789411    42.821831    -57.010796    -23.792593    -41.865078    0.657746    -31.477228    -6.013404    5.491609    29.459776    -6.907411    -1.103384    -4.343682    -5.123723    0.256551    7.836257    -18.679115    -4.598644    15.876031    -22.021658    1.090436    -2.205345    3.004133    
-4.637011    85.513237    19.382557    -3.873627    8.404838    -6.008958    -6.789563    9.526275    25.495499    -9.034982    1.903162    -26.412151    12.125468    -22.843678    -24.102680    -20.767128    -3.783612    20.446074    -27.267002    46.803089    -23.126591    17.187740    -11.754683    -71.792053    135.567947    21.680128    40.235626    18.792816    3.029045    17.576015    34.393700    1.908239    25.487869    4.462163    2.196267    44.229996    -55.646000    -22.654034    -39.257011    0.345166    -31.524826    -6.141399    5.829906    29.577221    -8.177014    -0.910123    -4.427430    -5.160071    0.442125    7.820163    -18.411039    -4.694602    16.821514    -21.305462    0.937109    -1.689314    2.969656    
